name rise38.3101peak57.3503fall81.6963.mot
datacolumns 19
datarows 29
range 0.74167000000000 0.78833800000000
endheader
time	ground_force1_vx	ground_force1_vy	ground_force1_vz	ground_force1_px	ground_force1_py	ground_force1_pz	ground_force2_vx	ground_force2_vy	ground_force2_vz	ground_force2_px	ground_force2_py	ground_force2_pz	ground_torque1_x	ground_torque1_y	ground_torque1_z	ground_torque2_x	ground_torque2_y	ground_torque2_z	
0.74167000000000	-13.47904200000000	41.28739300000000	-13.27534400000000	0.30967000000000	0.00000000000000	0.07562500000000	-51.24076200000000	809.10301200000004	-52.16650600000000	0.10491800000000	0.00000000000000	-0.08142000000000	0.00000000000000	-7.79755000000000	0.00000000000000	0.00000000000000	-18.16431400000000	0.00000000000000	
0.74333600000000	-14.92855400000000	48.25122100000000	-14.99222700000000	0.31416000000000	0.00000000000000	0.07679400000000	-51.50288100000000	806.16225599999996	-51.70549800000000	0.10431300000000	0.00000000000000	-0.08134200000000	0.00000000000000	-8.89352400000000	0.00000000000000	0.00000000000000	-18.04960200000000	0.00000000000000	
0.74500300000000	-16.16642700000000	55.26786200000000	-16.57673300000000	0.31832600000000	0.00000000000000	0.07786200000000	-51.76934600000000	803.11385299999995	-51.22362600000000	0.10371900000000	0.00000000000000	-0.08125700000000	0.00000000000000	-9.92966500000000	0.00000000000000	0.00000000000000	-17.93461500000000	0.00000000000000	
0.74666700000000	-17.15794100000000	62.24491100000000	-17.99441300000000	0.32221800000000	0.00000000000000	0.07884500000000	-52.04041900000000	799.95827099999997	-50.72114400000000	0.10313700000000	0.00000000000000	-0.08116800000000	0.00000000000000	-10.88402900000000	0.00000000000000	0.00000000000000	-17.81947900000000	0.00000000000000	
0.74833700000000	-17.88231500000000	69.11371500000000	-19.22220200000000	0.32587200000000	0.00000000000000	0.07975500000000	-52.31633300000000	796.69592299999999	-50.19832300000000	0.10256700000000	0.00000000000000	-0.08107300000000	0.00000000000000	-11.74102100000000	0.00000000000000	0.00000000000000	-17.70431300000000	0.00000000000000	
0.75000200000000	-18.33257100000000	75.83136500000001	-20.24861900000000	0.32932100000000	0.00000000000000	0.08060000000000	-52.59728600000000	793.32715399999995	-49.65544600000000	0.10200900000000	0.00000000000000	-0.08097200000000	0.00000000000000	-12.49169900000000	0.00000000000000	0.00000000000000	-17.58922700000000	0.00000000000000	
0.75167200000000	-18.51429400000000	82.38023200000001	-21.07299000000000	0.33258800000000	0.00000000000000	0.08138900000000	-52.88344500000000	789.85223900000005	-49.09281300000000	0.10146400000000	0.00000000000000	-0.08086600000000	0.00000000000000	-13.13347800000000	0.00000000000000	0.00000000000000	-17.47432400000000	0.00000000000000	
0.75334000000000	-18.44356600000000	88.76550300000000	-21.70392200000000	0.33569600000000	0.00000000000000	0.08212800000000	-53.17494000000000	786.27138000000002	-48.51073800000000	0.10093400000000	0.00000000000000	-0.08075400000000	0.00000000000000	-13.66937000000000	0.00000000000000	0.00000000000000	-17.35970000000000	0.00000000000000	
0.75500400000000	-18.14439600000000	95.01125600000000	-22.15727700000000	0.33866300000000	0.00000000000000	0.08282300000000	-53.47186000000000	782.58470000000000	-47.90955200000000	0.10041700000000	0.00000000000000	-0.08063700000000	0.00000000000000	-14.10689300000000	0.00000000000000	0.00000000000000	-17.24544000000000	0.00000000000000	
0.75667200000000	-17.64593400000000	101.15565100000001	-22.45389600000000	0.34150200000000	0.00000000000000	0.08347800000000	-53.77425400000000	778.79223999999999	-47.28959700000000	0.09991500000000	0.00000000000000	-0.08051300000000	0.00000000000000	-14.45679100000000	0.00000000000000	0.00000000000000	-17.13162000000000	0.00000000000000	
0.75833900000000	-16.97974900000000	107.24580899999999	-22.61732600000000	0.34422700000000	0.00000000000000	0.08409900000000	-54.08212700000000	774.89395700000000	-46.65123400000000	0.09942800000000	0.00000000000000	-0.08038400000000	0.00000000000000	-14.73172300000000	0.00000000000000	0.00000000000000	-17.01830700000000	0.00000000000000	
0.76000500000000	-16.17737000000000	113.33281900000000	-22.67170700000000	0.34684600000000	0.00000000000000	0.08468700000000	-54.39543800000000	770.88972000000001	-45.99483500000000	0.09895700000000	0.00000000000000	-0.08024900000000	0.00000000000000	-14.94500400000000	0.00000000000000	0.00000000000000	-16.90555700000000	0.00000000000000	
0.76167000000000	-15.26824600000000	119.46727900000000	-22.63998000000000	0.34937100000000	0.00000000000000	0.08524700000000	-54.71409700000000	766.77931200000000	-45.32079100000000	0.09850100000000	0.00000000000000	-0.08010800000000	0.00000000000000	-15.10952200000000	0.00000000000000	0.00000000000000	-16.79341600000000	0.00000000000000	
0.76333900000000	-14.27821400000000	125.69560500000000	-22.54249500000000	0.35180600000000	0.00000000000000	0.08578000000000	-55.03796300000000	762.56242299999997	-44.62950400000000	0.09806200000000	0.00000000000000	-0.07996100000000	0.00000000000000	-15.23686200000000	0.00000000000000	0.00000000000000	-16.68192000000000	0.00000000000000	
0.76500000000000	-13.22850300000000	132.05727200000001	-22.39605200000000	0.35416000000000	0.00000000000000	0.08628900000000	-55.36684300000000	758.23865699999999	-43.92139600000000	0.09763900000000	0.00000000000000	-0.07980800000000	0.00000000000000	-15.33668600000000	0.00000000000000	0.00000000000000	-16.57109100000000	0.00000000000000	
0.76667000000000	-12.13525100000000	138.58303500000000	-22.21338800000000	0.35643600000000	0.00000000000000	0.08677700000000	-55.70048900000000	753.80752700000005	-43.19690200000000	0.09723400000000	0.00000000000000	-0.07964900000000	0.00000000000000	-15.41635800000000	0.00000000000000	0.00000000000000	-16.46094300000000	0.00000000000000	
0.76833600000000	-11.00949100000000	145.29407000000000	-22.00304600000000	0.35863900000000	0.00000000000000	0.08724400000000	-56.03859500000000	749.26845900000001	-42.45647500000000	0.09684500000000	0.00000000000000	-0.07948300000000	0.00000000000000	-15.48082200000000	0.00000000000000	0.00000000000000	-16.35147800000000	0.00000000000000	
0.77000100000000	-9.85750900000000	152.20195699999999	-21.76959100000000	0.36077300000000	0.00000000000000	0.08769200000000	-56.38079900000000	744.62079100000005	-41.70058400000000	0.09647400000000	0.00000000000000	-0.07931200000000	0.00000000000000	-15.53266900000000	0.00000000000000	0.00000000000000	-16.24268500000000	0.00000000000000	
0.77166500000000	-8.68149500000000	159.30933700000000	-21.51407300000000	0.36284100000000	0.00000000000000	0.08812300000000	-56.72667600000000	739.86377900000002	-40.92971500000000	0.09612100000000	0.00000000000000	-0.07913500000000	0.00000000000000	-15.57237800000000	0.00000000000000	0.00000000000000	-16.13454100000000	0.00000000000000	
0.77333100000000	-7.48036600000000	166.61106799999999	-21.23468000000000	0.36484500000000	0.00000000000000	0.08853800000000	-57.07574200000000	734.99659899999995	-40.14437300000000	0.09578500000000	0.00000000000000	-0.07895200000000	0.00000000000000	-15.59867200000000	0.00000000000000	0.00000000000000	-16.02701400000000	0.00000000000000	
0.77499800000000	-6.25068500000000	174.09571700000001	-20.92746700000000	0.36678800000000	0.00000000000000	0.08893800000000	-57.42744900000000	730.01835100000005	-39.34508000000000	0.09546800000000	0.00000000000000	-0.07876300000000	0.00000000000000	-15.60894200000000	0.00000000000000	0.00000000000000	-15.92005900000000	0.00000000000000	
0.77666500000000	-4.98757900000000	181.74718999999999	-20.58712900000000	0.36867000000000	0.00000000000000	0.08932400000000	-57.78118800000000	724.92806499999995	-38.53237700000000	0.09516800000000	0.00000000000000	-0.07856700000000	0.00000000000000	-15.59969400000000	0.00000000000000	0.00000000000000	-15.81361700000000	0.00000000000000	
0.77833200000000	-3.68558900000000	189.54638600000001	-20.20771800000000	0.37049300000000	0.00000000000000	0.08969700000000	-58.13628400000000	719.72470999999996	-37.70682400000000	0.09488600000000	0.00000000000000	-0.07836600000000	0.00000000000000	-15.56698700000000	0.00000000000000	0.00000000000000	-15.70762200000000	0.00000000000000	
0.77999800000000	-2.33941300000000	197.47271200000000	-19.78328800000000	0.37225800000000	0.00000000000000	0.09005700000000	-58.49200100000000	714.40719799999999	-36.86900000000000	0.09462100000000	0.00000000000000	-0.07815900000000	0.00000000000000	-15.50682800000000	0.00000000000000	0.00000000000000	-15.60199400000000	0.00000000000000	
0.78167200000000	-0.94448600000000	205.50540899999999	-19.30841800000000	0.37396500000000	0.00000000000000	0.09040500000000	-58.84753600000000	708.97439599999996	-36.01950300000000	0.09437500000000	0.00000000000000	-0.07794700000000	0.00000000000000	-15.41549600000000	0.00000000000000	0.00000000000000	-15.49664300000000	0.00000000000000	
0.78333800000000	0.50259100000000	213.62460899999999	-18.77860800000000	0.37561600000000	0.00000000000000	0.09074300000000	-59.20202800000000	703.42513799999995	-35.15895200000000	0.09414600000000	0.00000000000000	-0.07772800000000	0.00000000000000	-15.28980300000000	0.00000000000000	0.00000000000000	-15.39146900000000	0.00000000000000	
0.78499900000000	2.00379300000000	221.81209899999999	-18.19053700000000	0.37721000000000	0.00000000000000	0.09106900000000	-59.55455000000000	697.75823000000003	-34.28798400000000	0.09393300000000	0.00000000000000	-0.07750400000000	0.00000000000000	-15.12726600000000	0.00000000000000	0.00000000000000	-15.28636300000000	0.00000000000000	
0.78667200000000	3.55956100000000	230.05180600000000	-17.54219200000000	0.37874700000000	0.00000000000000	0.09138600000000	-59.90411800000000	691.97247000000004	-33.40725500000000	0.09373800000000	0.00000000000000	-0.07727400000000	0.00000000000000	-14.92619800000000	0.00000000000000	0.00000000000000	-15.18120400000000	0.00000000000000	
0.78833800000000	5.16882600000000	238.33001600000000	-16.83288700000000	0.38022700000000	0.00000000000000	0.09169300000000	-60.24968700000000	686.06665899999996	-32.51744300000000	0.09355900000000	0.00000000000000	-0.07703900000000	0.00000000000000	-14.68574000000000	0.00000000000000	0.00000000000000	-15.07586600000000	0.00000000000000	
